<?xml version="1.0" encoding="UTF-8" standalone="no"?>
<!-- Generator: Adobe Illustrator 18.0.0, SVG Export Plug-In . SVG Version: 6.00 Build 0)  -->

<svg
   xmlns:dc="http://purl.org/dc/elements/1.1/"
   xmlns:cc="http://creativecommons.org/ns#"
   xmlns:rdf="http://www.w3.org/1999/02/22-rdf-syntax-ns#"
   xmlns:svg="http://www.w3.org/2000/svg"
   xmlns="http://www.w3.org/2000/svg"
   xmlns:sodipodi="http://sodipodi.sourceforge.net/DTD/sodipodi-0.dtd"
   xmlns:inkscape="http://www.inkscape.org/namespaces/inkscape"
   version="1.1"
   id="Layer_1"
   x="0px"
   y="0px"
   viewBox="0 0 83.479002 65.319001"
   enable-background="new 0 0 341.876 123.115"
   xml:space="preserve"
   inkscape:version="0.91 r13725"
   sodipodi:docname="truecraft_earth.svg"
   width="83.479004"
   height="65.319"><metadata
     id="metadata6225"><rdf:RDF><cc:Work
         rdf:about=""><dc:format>image/svg+xml</dc:format><dc:type
           rdf:resource="http://purl.org/dc/dcmitype/StillImage" /><dc:title></dc:title></cc:Work></rdf:RDF></metadata><defs
     id="defs6223" /><sodipodi:namedview
     pagecolor="#ffffff"
     bordercolor="#666666"
     borderopacity="1"
     objecttolerance="10"
     gridtolerance="10"
     guidetolerance="10"
     inkscape:pageopacity="0"
     inkscape:pageshadow="2"
     inkscape:window-width="2460"
     inkscape:window-height="1300"
     id="namedview6221"
     showgrid="false"
     fit-margin-top="0"
     fit-margin-left="0"
     fit-margin-right="0"
     fit-margin-bottom="0"
     showborder="false"
     inkscape:zoom="6.6020569"
     inkscape:cx="35.487206"
     inkscape:cy="37.302818"
     inkscape:window-x="1778"
     inkscape:window-y="50"
     inkscape:window-maximized="0"
     inkscape:current-layer="Layer_1" /><polygon
     points="170.938,82.375 184.247,75.214 170.938,68.053 157.629,75.214 "
     id="polygon6075"
     style="fill:#0c6a8e"
     transform="translate(-128.082,-30.02)" /><polygon
     points="163.187,74.195 165.08,73.177 166.74,74.07 169.052,72.826 167.751,72.126 171.113,70.317 171.93,70.757 172.531,70.433 173.955,71.199 174.475,70.919 177.837,72.728 175.415,74.031 176.612,74.676 177.613,74.137 179.614,75.214 177.97,76.099 178.855,76.575 176.853,77.651 174.968,76.637 173.925,77.198 175.276,77.926 171.914,79.735 170.407,78.924 168.901,79.735 165.539,77.926 166.437,77.442 164.877,76.603 165.469,76.285 164.28,75.645 162.552,76.575 160.023,75.214 162.552,73.853 "
     id="polygon6077"
     style="fill:#ededed"
     transform="translate(-128.082,-30.02)" /><polygon
     points="190.884,48.254 190.884,32.559 204.193,39.72 204.193,55.415 "
     id="polygon6079"
     style="fill:#002151"
     transform="translate(-128.082,-30.02)" /><polygon
     points="190.884,48.254 190.884,32.559 204.193,39.72 204.193,55.415 "
     id="polygon6081"
     style="fill:#0c6a8e"
     transform="translate(-128.082,-30.02)" /><polygon
     points="193.106,42.189 193.106,35.228 199.009,38.404 199.009,45.366 "
     id="polygon6083"
     style="fill:#66a042"
     transform="translate(-128.082,-30.02)" /><polygon
     points="194.938,44.773 194.938,38.639 200.139,41.438 200.139,47.572 "
     id="polygon6085"
     style="fill:#66a042"
     transform="translate(-128.082,-30.02)" /><polygon
     points="198.004,43.313 198.004,38.947 201.707,40.939 201.707,45.306 "
     id="polygon6087"
     style="fill:#66a042"
     transform="translate(-128.082,-30.02)" /><polygon
     points="199.009,49.698 199.009,45.332 202.712,47.324 202.712,51.691 "
     id="polygon6089"
     style="fill:#66a042"
     transform="translate(-128.082,-30.02)" /><polygon
     points="190.885,39.619 190.885,35.252 193.472,36.644 193.472,41.011 "
     id="polygon6091"
     style="fill:#66a042"
     transform="translate(-128.082,-30.02)" /><polygon
     points="203.277,50.671 203.277,48.511 204.193,49.004 204.193,51.164 "
     id="polygon6093"
     style="fill:#66a042"
     transform="translate(-128.082,-30.02)" /><polygon
     points="201.707,50.671 201.707,48.511 203.539,49.497 203.539,51.657 "
     id="polygon6095"
     style="fill:#66a042"
     transform="translate(-128.082,-30.02)" /><polygon
     points="202.623,42.714 202.623,40.554 204.192,41.398 204.192,43.558 "
     id="polygon6097"
     style="fill:#66a042"
     transform="translate(-128.082,-30.02)" /><polygon
     points="203.277,52.062 203.277,49.902 204.187,50.392 204.193,52.554 "
     id="polygon6099"
     style="fill:#66a042"
     transform="translate(-128.082,-30.02)" /><polygon
     points="202.06,52.244 202.06,50.084 203.892,51.069 203.892,53.229 "
     id="polygon6101"
     style="fill:#66a042"
     transform="translate(-128.082,-30.02)" /><polygon
     points="193.106,47.526 193.106,45.366 194.938,46.351 194.938,48.511 "
     id="polygon6103"
     style="fill:#66a042"
     transform="translate(-128.082,-30.02)" /><polygon
     points="192.447,42.457 192.447,40.297 194.279,41.282 194.279,43.442 "
     id="polygon6105"
     style="fill:#66a042"
     transform="translate(-128.082,-30.02)" /><polygon
     points="155.243,56.706 155.243,41.011 141.934,48.172 141.934,63.867 "
     id="polygon6107"
     style="fill:#0c6a8e"
     transform="translate(-128.082,-30.02)" /><g
     id="g6109"
     transform="translate(-128.082,-30.02)"><polygon
       points="151.875,47.26 151.875,46.088 148.808,47.738 148.808,46.396 145.105,48.388 145.105,52.755 146.673,51.911 146.673,55.021 150.389,53.021 150.389,55.021 151.875,54.221 151.875,55.96 153.706,54.975 153.706,53.236 155.23,52.416 155.244,43.069 153.341,44.093 153.341,46.471 "
       id="polygon6111"
       style="fill:#66a042" /><polygon
       points="144.337,59.916 144.752,59.693 144.752,58.31 145.105,58.12 145.105,55.96 143.535,56.805 143.535,55.96 141.934,56.822 141.934,59.7 "
       id="polygon6113"
       style="fill:#66a042" /><polygon
       points="148.908,56.302 148.908,55.752 148.908,55.547 148.908,54.997 148.269,55.342 148.269,55.891 148.269,56.096 148.269,56.646 "
       id="polygon6115"
       style="fill:#66a042" /></g><polygon
     points="155.243,56.706 155.243,41.011 141.934,48.172 141.934,63.867 "
     id="polygon6117"
     style="fill:none"
     transform="translate(-128.082,-30.02)" /><circle
     cx="42.856003"
     cy="31.537998"
     r="26.6"
     id="circle6119"
     style="opacity:0.28999999;fill:#7acdd2" /><circle
     cx="42.856003"
     cy="31.537998"
     r="8.9510002"
     id="circle6121"
     style="fill:#7acdd2" /><circle
     cx="42.856003"
     cy="31.537998"
     r="3.7850001"
     id="circle6123"
     style="fill:#ffffff" /><circle
     cx="13.852006"
     cy="50.722996"
     r="1.64"
     id="circle6125"
     style="fill:#ffffff" /><circle
     cx="39.070999"
     cy="63.678997"
     r="1.64"
     id="circle6127"
     style="fill:#ffffff" /><circle
     cx="66.457993"
     cy="48.663998"
     r="1.64"
     id="circle6129"
     style="fill:#ffffff" /><circle
     cx="81.839005"
     cy="38.98"
     r="1.64"
     id="circle6131"
     style="fill:#ffffff" /><circle
     cx="81.839005"
     cy="21.127998"
     r="1.64"
     id="circle6133"
     style="fill:#ffffff" /><circle
     cx="59.785995"
     cy="1.64"
     r="1.64"
     id="circle6135"
     style="fill:#ffffff" /><circle
     cx="39.070999"
     cy="3.3520017"
     r="1.64"
     id="circle6137"
     style="fill:#ffffff" /><circle
     cx="11.127"
     cy="7.8180013"
     r="1.64"
     id="circle6139"
     style="fill:#ffffff" /><circle
     cx="7.4360051"
     cy="20.570999"
     r="1.64"
     id="circle6141"
     style="fill:#ffffff" /><circle
     cx="1.64"
     cy="40.488003"
     r="1.64"
     id="circle6143"
     style="fill:#ffffff" /><g
     id="g6145"
     transform="translate(-128.082,-30.02)"><line
       stroke-miterlimit="10"
       x1="170.938"
       y1="61.557999"
       x2="167.153"
       y2="93.698997"
       id="line6147"
       style="fill:none;stroke:#ffffff;stroke-width:0.45190001;stroke-miterlimit:10" /><line
       stroke-miterlimit="10"
       x1="170.938"
       y1="61.557999"
       x2="141.93401"
       y2="80.742996"
       id="line6149"
       style="fill:none;stroke:#ffffff;stroke-width:0.45190001;stroke-miterlimit:10" /><line
       stroke-miterlimit="10"
       x1="170.938"
       y1="61.557999"
       x2="135.51801"
       y2="50.591"
       id="line6151"
       style="fill:none;stroke:#ffffff;stroke-width:0.45190001;stroke-miterlimit:10" /><line
       stroke-miterlimit="10"
       x1="170.938"
       y1="61.557999"
       x2="138.903"
       y2="37.838001"
       id="line6153"
       style="fill:none;stroke:#ffffff;stroke-width:0.45190001;stroke-miterlimit:10" /><line
       stroke-miterlimit="10"
       x1="170.938"
       y1="61.557999"
       x2="167.153"
       y2="33.372002"
       id="line6155"
       style="fill:none;stroke:#ffffff;stroke-width:0.45190001;stroke-miterlimit:10" /><line
       stroke-miterlimit="10"
       x1="170.938"
       y1="61.557999"
       x2="187.868"
       y2="31.66"
       id="line6157"
       style="fill:none;stroke:#ffffff;stroke-width:0.45190001;stroke-miterlimit:10" /><line
       stroke-miterlimit="10"
       x1="170.938"
       y1="61.557999"
       x2="209.92101"
       y2="51.147999"
       id="line6159"
       style="fill:none;stroke:#ffffff;stroke-width:0.45190001;stroke-miterlimit:10" /><line
       stroke-miterlimit="10"
       x1="170.938"
       y1="61.557999"
       x2="129.722"
       y2="70.508003"
       id="line6161"
       style="fill:none;stroke:#ffffff;stroke-width:0.45190001;stroke-miterlimit:10" /><line
       stroke-miterlimit="10"
       x1="170.938"
       y1="61.557999"
       x2="209.92101"
       y2="69"
       id="line6163"
       style="fill:none;stroke:#ffffff;stroke-width:0.45190001;stroke-miterlimit:10" /><line
       stroke-miterlimit="10"
       x1="170.938"
       y1="61.557999"
       x2="194.53999"
       y2="78.683998"
       id="line6165"
       style="fill:none;stroke:#ffffff;stroke-width:0.45190001;stroke-miterlimit:10" /></g><polygon
     points="190.901,69.61 190.901,53.914 177.593,61.075 177.593,76.771 "
     id="polygon6167"
     style="fill:#00637a"
     transform="translate(-128.082,-30.02)" /><g
     id="g6169"
     transform="translate(-128.082,-30.02)"><polygon
       points="184.452,68.245 185.334,67.77 185.334,69.31 186.808,68.517 186.808,66.977 188.553,66.038 188.553,67.813 190.901,66.549 190.901,64.13 190.901,64.022 190.901,60.474 190.901,60.174 190.901,55.421 186.205,57.947 186.205,62.248 184.452,63.192 "
       id="polygon6171"
       style="fill:#66a042" /><polygon
       points="185.086,61.016 185.086,59.211 183.408,60.113 183.408,61.919 "
       id="polygon6173"
       style="fill:#66a042" /><polygon
       points="180.56,67.395 180.56,66.044 181.539,65.517 181.539,61.908 182.344,61.475 182.344,60.176 181.138,60.826 181.138,61.485 177.593,63.393 177.593,67.641 178.805,66.988 178.805,68.339 "
       id="polygon6175"
       style="fill:#66a042" /></g><polygon
     points="136.702,71.523 136.702,55.828 150.011,62.989 150.011,78.684 "
     id="polygon6177"
     style="fill:#00637a"
     transform="translate(-128.082,-30.02)" /><g
     id="g6179"
     transform="translate(-128.082,-30.02)"><polygon
       points="146.082,74.538 146.082,74.184 147.128,74.747 147.128,72.447 144.99,71.296 144.99,71.65 143.944,71.087 143.944,73.388 "
       id="polygon6181"
       style="fill:#66a042" /><polygon
       points="148.472,73.29 148.472,74.465 149.564,75.052 149.564,73.877 "
       id="polygon6183"
       style="fill:#66a042" /><polygon
       points="148.118,74.706 148.118,75.881 149.21,76.468 149.21,75.293 "
       id="polygon6185"
       style="fill:#66a042" /><polygon
       points="145.513,70.642 145.513,69.467 144.421,68.88 144.421,70.054 "
       id="polygon6187"
       style="fill:#66a042" /><polygon
       points="145.013,66.671 145.013,66.238 144.043,65.716 144.043,70.06 142.601,69.284 142.601,71.709 138.656,69.586 138.656,67.162 136.702,66.111 136.702,58.211 137.771,58.787 137.771,56.903 140.129,58.172 140.129,60.055 144.043,62.161 144.043,62.934 145.013,63.456 145.013,62.426 145.714,62.803 145.714,62.119 147.023,62.823 147.023,63.508 148.958,64.549 148.958,65.439 150.003,66.002 150.003,70.247 146.059,68.125 146.059,67.234 "
       id="polygon6189"
       style="fill:#66a042" /></g><polygon
     points="170.938,51.148 184.247,43.987 170.938,36.826 157.629,43.987 "
     id="polygon6191"
     style="fill:#00637a"
     transform="translate(-128.082,-30.02)" /><g
     id="g6215"
     transform="translate(-128.082,-30.02)"><path
       d="m 174.349,45.358 -0.759,-0.408 -0.728,0.392 -0.995,-0.535 1.686,-0.907 0.651,0.35 1.45,-0.78 -0.979,-0.527 2.514,-1.353 -3.362,-1.809 -0.52,0.28 -1.423,-0.766 -0.601,0.323 -0.818,-0.44 -2.323,1.25 -0.588,-0.316 -2.529,1.361 0.725,0.39 -0.725,0.39 0.54,0.291 -1.136,0.611 -0.818,-0.44 -2.528,1.361 2.528,1.361 0.874,-0.47 0.335,0.18 -0.591,0.318 1.56,0.839 -0.898,0.483 3.362,1.809 0.73,-0.393 1.1,0.592 2,-1.076 -0.739,-0.398 0.944,-0.508 1.301,0.7 2.237,-1.204 0.378,0.203 2.001,-1.077 -2.001,-1.077 -1.855,1 z m -8.318,-0.842 -0.119,0.064 -0.005,-0.003 0.119,-0.064 0.005,0.003 z"
       id="path6217"
       inkscape:connector-curvature="0"
       style="fill:#ededed" /><polygon
       points="180.967,43.399 178.966,42.322 176.965,43.399 178.966,44.476 "
       id="polygon6219"
       style="fill:#ffffff" /></g></svg>